<?xml version="1.0" encoding="UTF-8" standalone="no"?>
<!-- Created with Inkscape (http://www.inkscape.org/) -->

<svg
   xmlns:dc="http://purl.org/dc/elements/1.1/"
   xmlns:cc="http://creativecommons.org/ns#"
   xmlns:rdf="http://www.w3.org/1999/02/22-rdf-syntax-ns#"
   xmlns:svg="http://www.w3.org/2000/svg"
   xmlns="http://www.w3.org/2000/svg"
   xmlns:sodipodi="http://sodipodi.sourceforge.net/DTD/sodipodi-0.dtd"
   xmlns:inkscape="http://www.inkscape.org/namespaces/inkscape"
   width="32"
   height="16"
   viewBox="0 0 8.4666662 4.2333335"
   version="1.1"
   id="svg823"
   inkscape:version="0.92.3 (2405546, 2018-03-11)"
   sodipodi:docname="icons.svg">
  <defs
     id="defs817" />
  <sodipodi:namedview
     id="base"
     pagecolor="#ffffff"
     bordercolor="#666666"
     borderopacity="1.0"
     inkscape:pageopacity="0.0"
     inkscape:pageshadow="2"
     inkscape:zoom="11.313709"
     inkscape:cx="32.310473"
     inkscape:cy="1.8921119"
     inkscape:document-units="px"
     inkscape:current-layer="layer1"
     showgrid="false"
     units="px"
     width="1024px"
     inkscape:window-width="1202"
     inkscape:window-height="1001"
     inkscape:window-x="70"
     inkscape:window-y="-8"
     inkscape:window-maximized="1" />
  <metadata
     id="metadata820">
    <rdf:RDF>
      <cc:Work
         rdf:about="">
        <dc:format>image/svg+xml</dc:format>
        <dc:type
           rdf:resource="http://purl.org/dc/dcmitype/StillImage" />
        <dc:title></dc:title>
      </cc:Work>
    </rdf:RDF>
  </metadata>
  <g
     inkscape:label="Camada 1"
     inkscape:groupmode="layer"
     id="layer1"
     transform="translate(0,-292.76667)">
    <g
       id="Action"
       inkscape:label="#g4683"
       inkscape:export-xdpi="96.800003"
       inkscape:export-ydpi="96.800003">
      <rect
         y="292.76666"
         x="-1.4382326e-007"
         height="4.2333336"
         width="4.2333336"
         id="rect4656"
         style="fill:none;stroke:none;stroke-width:0.79375005;stroke-miterlimit:4;stroke-dasharray:none" />
      <path
         id="rect4660"
         d="m 1.6553771,293.9776 v 8.9e-4 c -0.4971803,2.4e-4 -0.90569972,0.40714 -0.90569972,0.90437 0,0.49724 0.40851952,0.90545 0.90569972,0.9057 h 4.415e-4 4.415e-4 c 0.75592,-5.3e-4 1.6019388,-0.68032 1.826879,-0.90526 -0.2250286,-0.22503 -1.0716192,-0.9057 -1.827762,-0.9057 z m 4.415e-4,0.45241 c 0.2526452,0 0.4528498,0.2002 0.4528498,0.45285 0,0.25264 -0.2002046,0.45285 -0.4528498,0.45285 -0.2526452,0 -0.4528499,-0.20021 -0.4528499,-0.45285 0,-0.25265 0.2002047,-0.45285 0.4528499,-0.45285 z"
         style="fill:#000000;stroke:none;stroke-width:0.52916664;stroke-miterlimit:4;stroke-dasharray:none"
         inkscape:connector-curvature="0" />
    </g>
    <g
       inkscape:export-ydpi="96.800003"
       inkscape:export-xdpi="96.800003"
       inkscape:label="#g4683"
       id="Link"
       transform="translate(4.2333336)">
      <rect
         style="fill:none;stroke:none;stroke-width:0.79375005;stroke-miterlimit:4;stroke-dasharray:none"
         id="rect5256"
         width="4.2333336"
         height="4.2333336"
         x="-1.4382326e-007"
         y="292.76666" />
      <path
         style="color:#000000;font-style:normal;font-variant:normal;font-weight:normal;font-stretch:normal;font-size:medium;line-height:normal;font-family:sans-serif;font-variant-ligatures:normal;font-variant-position:normal;font-variant-caps:normal;font-variant-numeric:normal;font-variant-alternates:normal;font-feature-settings:normal;text-indent:0;text-align:start;text-decoration:none;text-decoration-line:none;text-decoration-style:solid;text-decoration-color:#000000;letter-spacing:normal;word-spacing:normal;text-transform:none;writing-mode:lr-tb;direction:ltr;text-orientation:mixed;dominant-baseline:auto;baseline-shift:baseline;text-anchor:start;white-space:normal;shape-padding:0;clip-rule:nonzero;display:inline;overflow:visible;visibility:visible;opacity:1;isolation:auto;mix-blend-mode:normal;color-interpolation:sRGB;color-interpolation-filters:linearRGB;solid-color:#000000;solid-opacity:1;vector-effect:none;fill:#000000;fill-opacity:1;fill-rule:nonzero;stroke:none;stroke-width:0.99999994;stroke-linecap:butt;stroke-linejoin:miter;stroke-miterlimit:4;stroke-dasharray:none;stroke-dashoffset:0;stroke-opacity:1;color-rendering:auto;image-rendering:auto;shape-rendering:auto;text-rendering:auto;enable-background:accumulate"
         d="M 26.166016 2.3203125 A 0.50004998 0.50004998 0 0 0 25.671875 2.8867188 A 0.50004998 0.50004998 0 0 0 25.671875 2.8886719 A 0.50004998 0.50004998 0 0 0 25.820312 3.1738281 L 26.769531 4.1230469 L 22.410156 8.4824219 L 23.515625 9.5878906 L 27.875 5.2285156 L 28.832031 6.1855469 A 0.50004998 0.50004998 0 0 0 29.681641 5.8320312 L 29.681641 2.8203125 A 0.50004998 0.50004998 0 0 0 29.185547 2.3203125 L 26.166016 2.3203125 z M 20.916016 3.5742188 C 19.485291 3.5742188 18.318359 4.7411348 18.318359 6.171875 L 18.318359 11.082031 C 18.318359 12.512734 19.485291 13.679688 20.916016 13.679688 L 25.826172 13.679688 C 27.256897 13.679688 28.423828 12.512734 28.423828 11.082031 L 28.423828 8.0449219 L 27.427734 8.0449219 L 27.427734 11.082031 C 27.427734 11.976041 26.720194 12.675781 25.826172 12.675781 L 20.916016 12.675781 C 20.021993 12.675781 19.322266 11.976041 19.322266 11.082031 L 19.322266 6.171875 C 19.322266 5.2778655 20.021993 4.5703125 20.916016 4.5703125 L 23.951172 4.5703125 L 23.951172 3.5742188 L 20.916016 3.5742188 z "
         transform="matrix(0.26458333,0,0,0.26458333,-4.2333336,292.76667)"
         id="rect5262" />
    </g>
    <g
       transform="matrix(0.50000002,0,0,0.50000002,3.7640949e-8,148.85032)"
       id="FormList"
       inkscape:label="#g4620"
       style="stroke-width:1.99999988">
      <rect
         inkscape:label="#rect65"
         style="fill:none;stroke:none;stroke-width:0.89153683"
         y="279.366"
         x="-5.5424575e-008"
         height="8.4666662"
         width="8.4666662"
         id="t32" />
      <g
         id="g4645"
         transform="matrix(0.94117656,0,0,0.9411777,0.24901894,16.681967)"
         style="stroke-width:1.99999988">
        <g
           id="g4770"
           transform="matrix(1.1811024,0,0,1.0390431,-0.76666683,-11.246029)"
           style="stroke-width:1.99999988">
          <rect
             ry="0"
             rx="0"
             y="281.20981"
             x="1.9843752"
             height="0.89958316"
             width="4.4979162"
             id="rect4580"
             style="fill:#000000;stroke:none;stroke-width:0.43588138" />
          <rect
             ry="0"
             rx="0"
             style="fill:#000000;stroke:none;stroke-width:0.43588138"
             id="rect4582"
             width="4.4979162"
             height="0.89958316"
             x="1.9843752"
             y="283.31644" />
          <rect
             ry="0"
             rx="0"
             y="285.4231"
             x="1.9843752"
             height="0.89958316"
             width="4.4979162"
             id="rect4584"
             style="fill:#000000;stroke:none;stroke-width:0.43588138" />
        </g>
      </g>
    </g>
    <g
       style="stroke-width:1.99999988"
       inkscape:label="#g4620"
       id="FormData"
       transform="matrix(-0.50000002,0,0,0.50000002,8.4666665,148.85032)">
      <rect
         id="rect5406"
         width="8.4666662"
         height="8.4666662"
         x="-5.5424575e-008"
         y="279.366"
         style="fill:none;stroke:none;stroke-width:0.89153683"
         inkscape:label="#rect65" />
      <g
         id="g5583"
         transform="translate(4.1538476e-7,-0.28114618)">
        <path
           sodipodi:nodetypes="ccccccccccccccccccccccc"
           inkscape:connector-curvature="0"
           id="rect5553"
           transform="matrix(-0.52916664,0,0,0.52916664,16.933332,287.83269)"
           d="m 18.886719,-13.027344 v 11.1171878 h 10.226562 v -8.5156248 l -0.21875,-0.216797 -0.78125,-0.78125 -0.601562,-0.603516 -0.775391,-0.77539 -0.224609,-0.22461 h -7.123047 z m 1,1 h 5.21289 v 3.019532 h 3.013672 v 6.0976558 h -8.226562 z m 6.214843,0 2.011719,2.017578 v 0.002 h -2.011719 z"
           style="fill:#000000;stroke:none;stroke-width:1;stroke-linecap:round;stroke-linejoin:miter;stroke-miterlimit:4;stroke-dasharray:none;paint-order:normal" />
        <g
           transform="translate(-0.04134116,0.0485616)"
           id="g5576">
          <path
             style="fill:#000000;stroke:none;stroke-width:0.52916664;stroke-linecap:round;stroke-linejoin:miter;stroke-miterlimit:4;stroke-dasharray:none;paint-order:normal"
             d="m 5.4901034,284.88199 v 0.52916 H 3.0592442 v -0.52916 z"
             id="path5564"
             inkscape:connector-curvature="0" />
          <path
             id="path5569"
             d="m 5.4901034,283.56734 v 0.52917 H 3.0592442 v -0.52917 z"
             style="fill:#000000;stroke:none;stroke-width:0.52916664;stroke-linecap:round;stroke-linejoin:miter;stroke-miterlimit:4;stroke-dasharray:none;paint-order:normal"
             inkscape:connector-curvature="0" />
          <path
             inkscape:connector-curvature="0"
             style="fill:#000000;stroke:none;stroke-width:0.52916664;stroke-linecap:round;stroke-linejoin:miter;stroke-miterlimit:4;stroke-dasharray:none;paint-order:normal"
             d="m 5.4901034,282.25268 v 0.52917 H 4.5971347 v -0.52917 z"
             id="path5571" />
        </g>
      </g>
    </g>
    <g
       id="FormEdit"
       inkscape:label="#g5736"
       transform="translate(0,-4.2333288)">
      <g
         transform="translate(8.7058604,0.0990774)"
         id="g5687">
        <path
           inkscape:connector-curvature="0"
           id="path5587"
           d="m 1.0614989,293.61328 c -0.37854427,-10e-6 -0.68729042,0.30874 -0.68729376,0.68729 l 3.23e-6,1.29914 c -1.2e-6,0.37854 0.30874538,0.6873 0.68729673,0.6873 h 1.2991422 c 0.3785443,0 0.6872994,-0.30876 0.6872935,-0.68729 l 9e-7,-0.80357 H 2.7843904 l 6.1e-6,0.80356 c -6e-7,0.23654 -0.1872066,0.42168 -0.4237478,0.42168 H 1.0615064 c -0.23654949,1e-5 -0.4216803,-0.18514 -0.42167966,-0.42168 l -3.21e-6,-1.29914 c 6.7e-7,-0.23654 0.18513243,-0.42374 0.42168167,-0.42375 h 0.8030494 l 1.5e-6,-0.26355 z"
           style="color:#000000;font-style:normal;font-variant:normal;font-weight:normal;font-stretch:normal;font-size:medium;line-height:normal;font-family:sans-serif;font-variant-ligatures:normal;font-variant-position:normal;font-variant-caps:normal;font-variant-numeric:normal;font-variant-alternates:normal;font-feature-settings:normal;text-indent:0;text-align:start;text-decoration:none;text-decoration-line:none;text-decoration-style:solid;text-decoration-color:#000000;letter-spacing:normal;word-spacing:normal;text-transform:none;writing-mode:lr-tb;direction:ltr;text-orientation:mixed;dominant-baseline:auto;baseline-shift:baseline;text-anchor:start;white-space:normal;shape-padding:0;clip-rule:nonzero;display:inline;overflow:visible;visibility:visible;opacity:1;isolation:auto;mix-blend-mode:normal;color-interpolation:sRGB;color-interpolation-filters:linearRGB;solid-color:#000000;solid-opacity:1;vector-effect:none;fill:#000000;fill-opacity:1;fill-rule:nonzero;stroke:none;stroke-width:0.26458332;stroke-linecap:butt;stroke-linejoin:miter;stroke-miterlimit:4;stroke-dasharray:none;stroke-dashoffset:0;stroke-opacity:1;color-rendering:auto;image-rendering:auto;shape-rendering:auto;text-rendering:auto;enable-background:accumulate" />
        <g
           transform="rotate(-45,2.1744358,294.52955)"
           id="g5670">
          <path
             inkscape:connector-curvature="0"
             id="rect5591"
             transform="matrix(0.26458333,0,0,0.26458333,-8.4666667,292.76667)"
             d="m 37.652344,5.0332031 -1.732422,1.1679688 -0.01172,0.00586 a 0.39062501,0.39062501 0 0 0 -0.201172,0.3417969 0.39062501,0.39062501 0 0 0 0.173828,0.3242188 0.39062501,0.39062501 0 0 0 0.0039,0.00195 l 1.767578,1.1816406 z m 0.533203,0 v 3.0234375 h 6.230469 V 5.0332031 Z m 6.763672,0 v 0.765625 1.5 0.7578125 l 0.763672,0.00586 c 0.423581,0.00378 0.765624,-0.3402136 0.765625,-0.7636719 l 0.002,-1.5 c 0,-0.2116535 -0.0864,-0.4028361 -0.22461,-0.5410156 -0.138253,-0.1383313 -0.329263,-0.22461 -0.541062,-0.22461 z"
             style="fill:#000000;stroke:none;stroke-width:0.99999994;stroke-linecap:round;stroke-linejoin:miter;stroke-miterlimit:4;stroke-dasharray:none;paint-order:normal" />
        </g>
      </g>
      <rect
         y="292.76666"
         x="8.4666662"
         height="4.2333336"
         width="4.2333336"
         id="rect5689"
         style="fill:none;stroke:none;stroke-width:0.79375005;stroke-miterlimit:4;stroke-dasharray:none" />
    </g>
  </g>
</svg>
